<?xml version="1.0" encoding="UTF-8" standalone="no"?>
<svg width="50px" height="40px" viewBox="0 0 50 40" version="1.1" xmlns="http://www.w3.org/2000/svg" xmlns:xlink="http://www.w3.org/1999/xlink">
    <!-- Generator: Sketch 48.1 (47250) - http://www.bohemiancoding.com/sketch -->
    <title>25 seconds</title>
    <desc>Created with Sketch.</desc>
    <defs>
        <rect id="path-1" x="0" y="0" width="50" height="40"></rect>
    </defs>
    <g id="Page-1" stroke="none" stroke-width="1" fill="none" fill-rule="evenodd">
        <g id="25-seconds">
            <g id="Group-38">
                <g id="noun_766868">
                    <mask id="mask-2" fill="white">
                        <use xlink:href="#path-1"></use>
                    </mask>
                    <use id="Mask" fill="#FFFFFF" xlink:href="#path-1"></use>
                    <g mask="url(#mask-2)" fill="#596988" fill-rule="nonzero" id="Shape" stroke="#596988" stroke-width="0.5">
                        <g transform="translate(10.000000, 5.000000)">
                            <path d="M28.041,7.3824 C28.0362,7.3716 28.0356,7.3602 28.0296,7.35 C28.0236,7.3398 28.0146,7.3338 28.0074,7.3248 C26.7222,5.1192 24.8808,3.2778 22.6752,1.9926 C22.6656,1.9854 22.6602,1.9758 22.6494,1.9698 C22.6386,1.9638 22.6272,1.9632 22.6158,1.9584 C20.4606,0.7152 17.9628,0 15.3,0 C15.1344,0 15,0.1356 15,0.3012 L15,14.7 C15,14.8656 15.1344,15 15.3,15 L29.7,15 C29.8656,15 30,14.8656 30,14.7 C30,12.0372 29.2848,9.5388 28.041,7.3824 Z M15.6,14.4 L15.6,0.603 C17.9472,0.6522 20.1552,1.278 22.0872,2.3442 L21.0402,4.1574 C20.9568,4.3008 21.006,4.4844 21.15,4.5672 C21.1974,4.5942 21.249,4.6074 21.3,4.6074 C21.4032,4.6074 21.5046,4.554 21.5598,4.4574 L22.6056,2.6454 C24.543,3.8238 26.175,5.4558 27.354,7.3932 L25.542,8.4396 C25.3986,8.5224 25.3494,8.706 25.4322,8.8494 C25.4874,8.946 25.5888,8.9994 25.692,8.9994 C25.743,8.9994 25.7946,8.9868 25.842,8.9592 L27.6552,7.9116 C28.7208,9.8442 29.3472,12.0516 29.3964,14.3988 L15.6,14.3988 L15.6,14.4 Z"></path>
                            <path d="M4.49540407,21.0452526 L2.16797937,22.3781864 C2.00739781,22.4701588 1.95230289,22.6734312 2.04502362,22.8333833 C2.10750933,22.940018 2.22038674,23 2.33662359,23 C2.39373419,23 2.45151667,22.9860042 2.50459593,22.9553467 L4.83202063,21.6224129 C4.99260219,21.5304405 5.04769711,21.3271681 4.95497638,21.167216 C4.86091187,21.0079305 4.65531373,20.9519472 4.49540407,21.0452526 Z"></path>
                            <path d="M9.3773307,4.83201459 C9.43933027,4.94019719 9.55132949,5 9.66666202,5 C9.72332829,5 9.78066122,4.98588923 9.83332752,4.95497991 C9.99265974,4.86225196 10.047326,4.65663781 9.95532667,4.49604376 L8.62200264,2.16843785 C8.52933662,2.00717186 8.32467138,1.95207264 8.16667248,2.04547253 C8.00734026,2.13820048 7.95267397,2.34381463 8.04467333,2.50440868 L9.3773307,4.83201459 Z"></path>
                            <path d="M21.6220026,25.1680174 C21.5300033,25.0073995 21.3260047,24.9522921 21.1666725,25.0450338 C21.0073403,25.1377755 20.952674,25.3427482 21.0446733,25.5040381 L22.3779974,27.8319896 C22.4393303,27.9395163 22.5519961,28 22.666662,28 C22.7233283,28 22.7806612,27.9858871 22.8333275,27.9549732 C22.9926597,27.8622315 23.047326,27.6572589 22.9553267,27.4959689 L21.6220026,25.1680174 Z"></path>
                            <path d="M8.83319817,25.0457666 C8.67326873,24.9517041 8.47002507,25.0074697 8.37806564,25.1687197 L7.04465394,27.4960939 C6.95269451,27.656672 7.00733707,27.8622657 7.16660014,27.9549844 C7.21924358,27.9858906 7.27655163,28 7.3331933,28 C7.44847577,28 7.56042638,27.9395313 7.62239904,27.8320313 L8.95581074,25.5046571 C9.04710379,25.3434071 8.99246123,25.1378134 8.83319817,25.0457666 Z"></path>
                            <path d="M4.831791,8.37804746 L2.50400275,7.04481586 C2.34272412,6.95282288 2.13776586,7.00681876 2.04503065,7.16680655 C1.95229544,7.32612773 2.00739897,7.53011216 2.16800561,7.62210514 L4.49579385,8.95533674 C4.5488814,8.98533445 4.60667291,9 4.66379242,9 C4.78004744,9 4.89294248,8.94067119 4.95543795,8.83334605 C5.04750117,8.67402487 4.99239763,8.47004044 4.831791,8.37804746 Z"></path>
                            <path d="M27.8320079,22.3779323 L25.5044075,21.0451205 C25.3444858,20.9524437 25.1382002,21.0071163 25.0454724,21.1671338 C24.9520728,21.3264844 25.0071718,21.5305067 25.1684375,21.6225167 L27.4960379,22.9553285 C27.5491212,22.9859985 27.606908,23 27.6640229,23 C27.7802686,23 27.8931545,22.9399935 27.954973,22.8333152 C28.0477007,22.6739645 27.9926016,22.4699423 27.8320079,22.3779323 Z"></path>
                            <path d="M3,15.5 C3,15.224 2.8656,15 2.7,15 L0.3,15 C0.1344,15 0,15.224 0,15.5 C0,15.776 0.1344,16 0.3,16 L2.7,16 C2.8656,16 3,15.776 3,15.5 Z"></path>
                            <path d="M15.5,27 C15.224,27 15,27.1344 15,27.3 L15,29.7 C15,29.8656 15.224,30 15.5,30 C15.776,30 16,29.8656 16,29.7 L16,27.3 C16,27.1344 15.776,27 15.5,27 Z"></path>
                        </g>
                    </g>
                </g>
            </g>
        </g>
    </g>
</svg>