<?xml version="1.0" encoding="UTF-8" standalone="no"?>
<svg width="21px" height="23px" viewBox="0 0 21 23" version="1.1" xmlns="http://www.w3.org/2000/svg" xmlns:xlink="http://www.w3.org/1999/xlink">
    <!-- Generator: sketchtool 41.2 (35397) - http://www.bohemiancoding.com/sketch -->
    <title>10C3F994-A812-47CA-A232-C776479AFB71</title>
    <desc>Created with sketchtool.</desc>
    <defs></defs>
    <g id="Welcome" stroke="none" stroke-width="1" fill="none" fill-rule="evenodd" opacity="0.5">
        <g id="01-VIP-10-by-11" transform="translate(-141.000000, -1497.000000)" fill="#000000">
            <g id="home-(1)" transform="translate(141.000000, 1497.000000)">
                <g id="Group">
                    <path d="M1.00335246,7.29043784 L8.70587705,1.38076541 L16.4084016,7.29043784 C16.5170164,7.37380216 16.6443074,7.41408324 16.7706516,7.41408324 C16.9532828,7.41408324 17.1336762,7.32993081 17.2521025,7.17012 C17.4524631,6.89979892 17.3994467,6.51546486 17.1337623,6.31160757 L9.06855738,0.123557838 C8.85390984,-0.0412443243 8.5577582,-0.0412443243 8.34311066,0.123557838 L0.277991803,6.31160757 C0.012307377,6.51546486 -0.0406229508,6.89979892 0.159651639,7.17012 C0.35992623,7.44035351 0.737668033,7.49420757 1.00335246,7.29043784 L1.00335246,7.29043784 Z" id="Shape"></path>
                    <path d="M20.2736926,16.3961514 C21.0114467,15.4674973 21.170582,14.2092389 20.688873,13.1123676 C20.2135328,12.0298573 19.242627,11.3481438 18.0919303,11.288773 C18.0331475,11.2857081 17.9739344,11.2841319 17.914377,11.2841319 C17.7301967,11.2841319 17.5499754,11.300507 17.373541,11.3288789 L17.373541,9.41123676 C17.373541,9.21885081 17.2848074,9.03767351 17.1337623,8.92182162 L9.06855738,2.73377189 C8.85390984,2.56896973 8.5577582,2.56896973 8.34311066,2.73377189 L0.277905738,8.92182162 C0.126946721,9.03767351 0.0381270492,9.21885081 0.0381270492,9.41123676 L0.0381270492,19.8297632 C0.0381270492,20.1682995 0.307856557,20.4427362 0.640586066,20.4427362 L13.0644959,20.4427362 L14.5931066,22.3668584 C14.7074877,22.5108195 14.8797049,22.5945341 15.0616475,22.5945341 C15.2435902,22.5945341 15.4158074,22.5108195 15.5301885,22.3668584 L17.2358361,20.2198768 C17.2360082,20.2197016 17.2360943,20.2195265 17.2362664,20.2193514 L20.2736926,16.3961514 L20.2736926,16.3961514 Z M1.24313115,9.71684757 L8.70587705,3.99106703 L16.168623,9.71684757 L16.168623,11.7685557 C15.7283975,12.0320465 15.3493648,12.3907232 15.0616475,12.8183157 C14.4386189,11.8927265 13.3923197,11.2842195 12.208832,11.2842195 C12.1492746,11.2842195 12.0901475,11.2857957 12.0314508,11.288773 C10.880582,11.3481438 9.90967623,12.0298573 9.43433607,13.1123676 C8.95271311,14.2091514 9.1117623,15.4674973 9.84960246,16.3961514 L12.0905779,19.2168778 L1.24313115,19.2168778 L1.24313115,9.71684757 L1.24313115,9.71684757 Z M10.7866844,15.6254692 C10.3353566,15.0573308 10.2387049,14.2860357 10.5345123,13.6124659 C10.8211967,12.9596497 11.4036885,12.5486951 12.0927295,12.5131427 C12.1312008,12.5112162 12.1699303,12.5101654 12.208918,12.5101654 C13.4497254,12.5101654 14.4592746,13.5372454 14.4592746,14.7997946 C14.4592746,15.1383308 14.7290041,15.4127676 15.0617336,15.4127676 C15.3944631,15.4127676 15.6641926,15.1383308 15.6641926,14.7997946 C15.6641926,13.537333 16.6736557,12.5101654 17.9144631,12.5101654 C17.9534508,12.5101654 17.9921803,12.5112162 18.0308238,12.5132303 C18.7197787,12.5487827 19.3021844,12.9597373 19.5888689,13.6125535 C19.8846762,14.2861232 19.7880246,15.0574184 19.3366967,15.6255568 L15.0617336,21.0065838 L10.7866844,15.6254692 L10.7866844,15.6254692 Z" id="Shape"></path>
                </g>
            </g>
        </g>
    </g>
</svg>