<?xml version="1.0" encoding="UTF-8" standalone="no"?>
<svg width="28px" height="15px" viewBox="0 0 28 15" version="1.1" xmlns="http://www.w3.org/2000/svg" xmlns:xlink="http://www.w3.org/1999/xlink">
    <!-- Generator: Sketch 48.2 (47327) - http://www.bohemiancoding.com/sketch -->
    <title>expresship icon VIP</title>
    <desc>Created with Sketch.</desc>
    <defs></defs>
    <g id="Page-1" stroke="none" stroke-width="1" fill="none" fill-rule="evenodd">
        <g id="expresship-icon-VIP">
            <g id="wishlist2">
                <g id="XpresShip-Icon" transform="translate(0.200000, 0.400000)">
                    <path d="M18.4469943,1.91675429 L21.3563848,1.91675429 L24.642099,5.90123048 L25.64928,5.90123048 C26.0593371,5.90123048 26.39448,6.19913524 26.39448,6.56363048 L26.39448,9.7258019 C26.39448,10.089859 26.0593371,10.3882019 25.64928,10.3882019 L24.1509943,10.3882019 L21.7037943,10.3882019 L17.1607467,10.3882019 L17.1607467,3.06105905 C17.1607467,2.43195429 17.7399086,1.91675429 18.4469943,1.91675429" id="Fill-1" fill="#FEFEFE"></path>
                    <path d="M18.4469943,1.91675429 L21.3563848,1.91675429 L24.642099,5.90123048 L25.64928,5.90123048 C26.0593371,5.90123048 26.39448,6.19913524 26.39448,6.56363048 L26.39448,9.7258019 C26.39448,10.089859 26.0593371,10.3882019 25.64928,10.3882019 L24.1509943,10.3882019 L21.7037943,10.3882019 L17.1607467,10.3882019 L17.1607467,3.06105905 C17.1607467,2.43195429 17.7399086,1.91675429 18.4469943,1.91675429 Z" id="Stroke-3" stroke="#1D3B48" stroke-linecap="round" stroke-linejoin="round"></path>
                    <path d="M17.1609657,0.109611429 L7.84574667,0.109611429 C6.56037524,0.109611429 5.50807048,1.16104 5.50807048,2.44728762 L5.50807048,10.3882019 L17.1609657,10.3882019 L17.1609657,0.109611429 Z" id="Fill-5" fill="#FEFEFE"></path>
                    <path d="M17.1609657,0.109611429 L7.84574667,0.109611429 C6.56037524,0.109611429 5.50807048,1.16104 5.50807048,2.44728762 L5.50807048,10.3882019 L17.1609657,10.3882019 L17.1609657,0.109611429 Z" id="Stroke-7" stroke="#1D3B48" stroke-linecap="round" stroke-linejoin="round"></path>
                    <path d="M10.3281257,13.1523638 C11.4544686,13.1523638 12.3731543,12.2336781 12.3731543,11.1073352 C12.3731543,9.98099238 11.4544686,9.06230667 10.3281257,9.06230667 C9.20178286,9.06230667 8.28309714,9.98099238 8.28309714,11.1073352 C8.28309714,12.2336781 9.20178286,13.1523638 10.3281257,13.1523638" id="Fill-9" fill="#FEFEFE"></path>
                    <path d="M10.3281257,13.1523638 C11.4544686,13.1523638 12.3731543,12.2336781 12.3731543,11.1073352 C12.3731543,9.98099238 11.4544686,9.06230667 10.3281257,9.06230667 C9.20178286,9.06230667 8.28309714,9.98099238 8.28309714,11.1073352 C8.28309714,12.2336781 9.20178286,13.1523638 10.3281257,13.1523638 Z" id="Stroke-11" stroke="#1D3B48" stroke-linecap="round" stroke-linejoin="round"></path>
                    <path d="M21.3771943,13.1523638 C22.5035371,13.1523638 23.4222229,12.2336781 23.4222229,11.1073352 C23.4222229,9.98099238 22.5035371,9.06230667 21.3771943,9.06230667 C20.2512895,9.06230667 19.3321657,9.98099238 19.3321657,11.1073352 C19.3321657,12.2336781 20.2512895,13.1523638 21.3771943,13.1523638" id="Fill-13" fill="#FEFEFE"></path>
                    <path d="M21.3771943,13.1523638 C22.5035371,13.1523638 23.4222229,12.2336781 23.4222229,11.1073352 C23.4222229,9.98099238 22.5035371,9.06230667 21.3771943,9.06230667 C20.2512895,9.06230667 19.3321657,9.98099238 19.3321657,11.1073352 C19.3321657,12.2336781 20.2512895,13.1523638 21.3771943,13.1523638 Z" id="Stroke-15" stroke="#1D3B48" stroke-linecap="round" stroke-linejoin="round"></path>
                    <polygon id="Fill-17" fill="#FEFEFE" points="18.8799638 3.51256 20.7168971 3.51256 21.9532019 5.20141714 18.8799638 5.20141714"></polygon>
                    <polygon id="Stroke-19" stroke="#1D3B48" stroke-linecap="round" stroke-linejoin="round" points="18.8799638 3.51256 20.7168971 3.51256 21.9532019 5.20141714 18.8799638 5.20141714"></polygon>
                    <path d="M4.65041143,13.5425314 L24.2788305,13.5425314" id="Stroke-21" stroke="#1D3B48" stroke-linecap="round" stroke-linejoin="round"></path>
                    <path d="M2.98061143,13.5425314 L3.35441143,13.5425314" id="Stroke-23" stroke="#1D3B48" stroke-linecap="round" stroke-linejoin="round"></path>
                    <path d="M0.684028571,7.56323238 L4.88098092,7.56323238" id="Stroke-25" stroke="#1D3B48" stroke-linecap="round" stroke-linejoin="round"></path>
                    <path d="M2.4381181,5.29915619 L5.40796571,5.29915619" id="Stroke-33" stroke="#1D3B48" stroke-linecap="round" stroke-linejoin="round"></path>
                </g>
            </g>
        </g>
    </g>
</svg>