<?xml version="1.0" encoding="UTF-8" standalone="no"?>
<svg width="39px" height="27px" viewBox="0 0 39 27" version="1.1" xmlns="http://www.w3.org/2000/svg" xmlns:xlink="http://www.w3.org/1999/xlink">
    <!-- Generator: Sketch 44.1 (41455) - http://www.bohemiancoding.com/sketch -->
    <title>Artboard 9</title>
    <desc>Created with Sketch.</desc>
    <defs>
        <rect id="path-1" x="0.203111495" y="0" width="38" height="26.0769231"></rect>
    </defs>
    <g id="Welcome" stroke="none" stroke-width="1" fill="none" fill-rule="evenodd">
        <g id="Artboard-9">
            <g id="noun_518000-copy" transform="translate(19.500000, 13.500000) scale(-1, -1) translate(-19.500000, -13.500000) ">
                <mask id="mask-2" fill="white">
                    <use xlink:href="#path-1"></use>
                </mask>
                <g id="Mask"></g>
                <g id="noun_518000" opacity="0.15" mask="url(#mask-2)" stroke="#C8C8C8" stroke-width="0.5" fill="#C8C8C8" fill-rule="nonzero">
                    <g transform="translate(0.203111, -6.923077)" id="Shape">
                        <path d="M36.5561177,1.83314065 L36.5561177,1.83314065 C36.5561177,2.62554848 36.073847,3.21985435 35.3986681,3.4179563 C28.3575161,5.20087392 24.8851672,9.55911698 24.8851672,16.5917365 C24.8851672,19.1670619 25.6568003,20.5537756 27.1036123,20.5537756 C27.3929748,20.5537756 27.8752454,20.4547246 28.3575161,20.3556736 C29.3220575,20.0585207 30.0936906,19.9594697 30.7688695,19.9594697 C32.6979523,19.9594697 34.3376726,20.5537756 35.4951222,21.8414383 C36.6525719,23.129101 37.2312967,24.6148657 37.2312967,26.1996814 C37.2312967,27.784497 36.6525719,29.2702617 35.4951222,30.5579244 C34.3376726,31.8455872 32.7944064,32.439893 30.8653237,32.439893 C28.261062,32.439893 26.0426168,31.1522303 24.1135341,28.6759558 C22.1844514,26.1996814 21.21991,22.8319481 21.21991,18.671807 C21.21991,13.91736 22.5702679,9.75721893 25.2709838,6.38948566 C27.585883,3.51700728 30.7688695,1.43693673 34.7234891,0.347375967 C35.4951222,0.0502230314 36.5561177,0.743579882 36.5561177,1.83314065 Z M15.8184784,1.83314065 L15.8184784,1.83314065 C15.8184784,2.62554848 15.3362077,3.21985435 14.6610287,3.4179563 C7.61987678,5.20087392 4.14752787,9.55911698 4.14752787,16.5917365 C4.14752787,19.1670619 4.91916096,20.5537756 6.46242714,20.5537756 C6.75178955,20.5537756 7.1376061,20.4547246 7.71633092,20.3556736 C8.68087228,20.0585207 9.45250537,19.9594697 10.1276843,19.9594697 C12.0567671,19.9594697 13.6000332,20.5537756 14.853937,21.8414383 C16.0113867,23.129101 16.5901115,24.6148657 16.5901115,26.1996814 C16.5901115,27.6854461 16.0113867,29.1712107 14.853937,30.4588735 C13.6964874,31.7465362 12.1532212,32.439893 10.1276843,32.439893 C7.52342264,32.439893 5.30497751,31.1522303 3.37589478,28.6759558 C1.44681205,26.1996814 0.482270682,22.8319481 0.482270682,18.671807 C0.482270682,13.91736 1.83262859,9.75721893 4.53334441,6.38948566 C6.84824369,3.51700728 9.93477606,1.43693673 13.8893957,0.347375967 C14.853937,0.0502230314 15.8184784,0.743579882 15.8184784,1.83314065 Z"></path>
                    </g>
                </g>
            </g>
        </g>
    </g>
</svg>