<?xml version="1.0" encoding="UTF-8" standalone="no"?>
<svg width="51px" height="35px" viewBox="0 0 51 35" version="1.1" xmlns="http://www.w3.org/2000/svg" xmlns:xlink="http://www.w3.org/1999/xlink">
    <!-- Generator: Sketch 44.1 (41455) - http://www.bohemiancoding.com/sketch -->
    <title>Artboard 8</title>
    <desc>Created with Sketch.</desc>
    <defs>
        <rect id="path-1" x="0.167430135" y="0" width="50" height="35"></rect>
    </defs>
    <g id="Welcome" stroke="none" stroke-width="1" fill="none" fill-rule="evenodd">
        <g id="Artboard-8">
            <g id="noun_518000-copy">
                <mask id="mask-2" fill="white">
                    <use xlink:href="#path-1"></use>
                </mask>
                <g id="Mask"></g>
                <g id="noun_518000" opacity="0.15" mask="url(#mask-2)" stroke="#C8C8C8" stroke-width="0.5" fill="#C8C8C8" fill-rule="nonzero">
                    <g transform="translate(0.167430, -8.974359)" id="Shape">
                        <path d="M48.1322217,2.37629343 L48.1322217,2.37629343 C48.1322217,3.40348876 47.4972319,4.17388526 46.6082463,4.4306841 C37.3373962,6.7418736 32.7654702,12.3914479 32.7654702,21.5078065 C32.7654702,24.8461914 33.7814537,26.6437832 35.6864229,26.6437832 C36.0674168,26.6437832 36.7024065,26.5153838 37.3373962,26.3869844 C38.6073757,26.0017861 39.6233593,25.8733867 40.5123449,25.8733867 C43.0523038,25.8733867 45.2112689,26.6437832 46.7352443,28.3129756 C48.2592196,29.982168 49.0212073,31.9081593 49.0212073,33.9625499 C49.0212073,36.0169406 48.2592196,37.9429319 46.7352443,39.6121243 C45.2112689,41.2813167 43.1793018,42.0517132 40.6393428,42.0517132 C37.2103983,42.0517132 34.2894455,40.3825208 31.7494866,37.1725354 C29.2095277,33.9625499 27.9395482,29.5969698 27.9395482,24.2041943 C27.9395482,18.0410223 29.7175194,12.6482468 33.2734619,8.2826666 C36.3214127,4.55908351 40.5123449,1.86269576 45.7192607,0.45030218 C46.7352443,0.0651039296 48.1322217,0.963899847 48.1322217,2.37629343 Z M20.8276632,2.37629343 L20.8276632,2.37629343 C20.8276632,3.40348876 20.1926735,4.17388526 19.3036878,4.4306841 C10.0328378,6.7418736 5.46091169,12.3914479 5.46091169,21.5078065 C5.46091169,24.8461914 6.47689526,26.6437832 8.50886241,26.6437832 C8.88985624,26.6437832 9.39784803,26.5153838 10.1598357,26.3869844 C11.4298152,26.0017861 12.4457987,25.8733867 13.3347844,25.8733867 C15.8747433,25.8733867 17.9067104,26.6437832 19.5576837,28.3129756 C21.0816591,29.982168 21.8436468,31.9081593 21.8436468,33.9625499 C21.8436468,35.8885412 21.0816591,37.8145324 19.5576837,39.4837249 C18.0337084,41.1529173 16.0017412,42.0517132 13.3347844,42.0517132 C9.90583982,42.0517132 6.98488705,40.3825208 4.44492812,37.1725354 C1.9049692,33.9625499 0.634989732,29.5969698 0.634989732,24.2041943 C0.634989732,18.0410223 2.41296098,12.6482468 5.96890348,8.2826666 C9.01685419,4.55908351 13.0807885,1.86269576 18.2877043,0.45030218 C19.5576837,0.0651039296 20.8276632,0.963899847 20.8276632,2.37629343 Z"></path>
                    </g>
                </g>
            </g>
        </g>
    </g>
</svg>